# xmcd
#
# Track frame offsets:
#	150
#	12628
#	29200
#	41510
#	51175
#	67685
#	82938
#	93180
#	110070
#	121158
#	139453
#	153928
#
# Disc length: 2244
#
# Revision: 1
# Processed by: cddbd v1.5.1PL0 Copyright (c) Steve Scherf et al.
# Submitted via: VisiTrax 2.9.5.181 - For more info visit www.synapsa.com
# Normalized: r0:DSETVAR1
#
DISCID=9c08c20c
DTITLE=Various Artist - Country Feelings
DYEAR=1990
DGENRE=Country
TTITLE0=Elvis Presley - Guitar Man
TTITLE1=Ronnie Milsap - Smoky Mountain Rain
TTITLE2=Deuce - Goodbyes and other lies
TTITLE3=Waylon Jennings - Theme from the Dukes of Hazzard (Good Ol'Boys)
TTITLE4=Jerry Reed - Second-hand Satin Lady (and a bargain basement boy)
TTITLE5=John Denver - Dancing with the Mountains
TTITLE6=Tom T. Hall - The Last Country Song
TTITLE7=Dolly Parton - Hush-a-bye Hard Times
TTITLE8=Charley Pride - Missin'You
TTITLE9=Alabama - My Home's in Alabama
TTITLE10=Gary Stewart - Mazelle
TTITLE11=Waylon and Jessi - You Never Can Tell (C'est la vie)
EXTD=
EXTT0=
EXTT1=
EXTT2=
EXTT3=
EXTT4=
EXTT5=
EXTT6=
EXTT7=
EXTT8=
EXTT9=
EXTT10=
EXTT11=
PLAYORDER=
